<?xml version="1.0" standalone="no"?>
<!DOCTYPE svg PUBLIC "-//W3C//DTD SVG 20010904//EN"
 "http://www.w3.org/TR/2001/REC-SVG-20010904/DTD/svg10.dtd">
<svg version="1.0" xmlns="http://www.w3.org/2000/svg"
 width="1518.000000pt" height="1518.000000pt" viewBox="0 0 1518.000000 1518.000000"
 preserveAspectRatio="xMidYMid meet">
<metadata>
Created by potrace 1.14, written by Peter Selinger 2001-2017
</metadata>
<g transform="translate(0.000000,1518.000000) scale(0.100000,-0.100000)"
fill="#000000" stroke="none">
<path d="M9165 14861 c-22 -10 -65 -37 -95 -60 -72 -55 -250 -230 -250 -247 0
-2 -4 -10 -10 -17 -47 -57 -60 -76 -60 -86 0 -6 -4 -11 -10 -11 -5 0 -10 -4
-10 -10 0 -5 -24 -47 -53 -92 -29 -46 -57 -90 -60 -98 -4 -8 -34 -58 -67 -110
-71 -115 -150 -263 -150 -284 0 -8 -5 -16 -11 -18 -5 -2 -11 -10 -13 -18 -3
-17 -12 -40 -31 -85 -7 -16 -20 -52 -30 -80 -9 -27 -21 -59 -26 -70 -25 -58
-48 -129 -44 -136 3 -4 0 -9 -5 -11 -6 -2 -12 -13 -13 -26 0 -12 -4 -22 -7
-22 -4 0 -7 -6 -8 -12 -1 -16 -7 -38 -15 -58 -26 -66 -97 -313 -92 -320 3 -6
1 -10 -4 -10 -6 0 -11 -8 -11 -17 0 -10 -7 -37 -15 -60 -8 -22 -16 -52 -19
-65 -2 -12 -11 -45 -20 -72 -8 -27 -13 -53 -10 -58 3 -4 1 -8 -4 -8 -5 0 -9
-6 -9 -12 0 -7 -8 -42 -18 -78 -16 -61 -20 -77 -30 -125 -3 -11 -7 -29 -10
-40 -26 -113 -44 -209 -39 -216 3 -5 0 -9 -7 -9 -7 0 -10 -2 -7 -5 3 -4 1 -25
-5 -48 -5 -23 -11 -56 -12 -73 -1 -17 -5 -36 -9 -42 -4 -7 -5 -12 -1 -12 3 0
1 -8 -4 -19 -9 -15 -17 -65 -26 -146 -1 -11 -5 -31 -9 -45 -11 -45 -24 -122
-31 -182 -2 -21 -6 -41 -9 -46 -2 -4 -7 -26 -10 -48 -5 -39 -9 -57 -26 -149
-11 -56 -18 -94 -26 -144 -3 -18 -8 -43 -10 -55 -4 -19 -11 -60 -19 -111 -2
-11 -4 -20 -5 -20 -2 0 -9 -33 -14 -70 -2 -16 -9 -50 -15 -75 -5 -25 -13 -61
-16 -80 -3 -19 -10 -51 -15 -71 -6 -19 -12 -51 -14 -70 -3 -19 -5 -34 -6 -34
-1 0 -3 -7 -5 -15 -7 -35 -16 -87 -21 -114 -5 -34 -13 -47 -15 -23 -2 18 -5
34 -9 42 -1 3 -3 8 -5 13 -1 4 -4 14 -8 22 -6 17 -19 67 -23 90 -2 8 -17 55
-33 104 -17 49 -28 93 -25 97 3 5 2 9 -3 9 -4 0 -17 28 -27 63 -23 71 -61 173
-77 201 -6 10 -12 26 -14 35 -6 26 -29 86 -36 91 -4 3 -10 16 -14 30 -4 14
-29 69 -56 123 -26 53 -45 97 -41 97 4 0 2 4 -5 8 -6 4 -27 36 -45 72 -61 115
-110 205 -119 214 -5 6 -9 18 -9 28 0 10 -4 18 -10 18 -5 0 -10 9 -10 19 0 11
-3 21 -7 23 -5 2 -23 41 -41 88 -19 47 -37 92 -41 100 -5 9 -23 63 -42 120
-35 111 -35 112 -43 148 -3 12 -8 27 -11 32 -3 5 -8 19 -11 30 -10 45 -13 57
-28 101 -9 26 -17 59 -18 73 -1 14 -5 26 -9 26 -4 0 -9 12 -12 28 -10 52 -18
86 -23 94 -7 10 -16 48 -17 71 -1 9 -4 17 -7 17 -5 0 -12 22 -35 110 -1 3 -5
14 -9 25 -23 60 -28 75 -27 79 0 3 -6 21 -15 41 -8 19 -11 35 -8 35 4 0 2 6
-3 13 -6 6 -25 57 -44 112 -18 55 -37 102 -41 103 -5 2 -8 9 -8 16 0 15 -54
150 -71 180 -6 10 -12 26 -14 35 -3 15 -67 164 -105 246 -10 22 -28 65 -40 95
-12 30 -28 69 -35 85 -26 56 -97 249 -98 267 -1 10 -5 18 -9 18 -4 0 -8 11 -8
25 0 14 -5 25 -10 25 -6 0 -9 3 -8 8 3 12 -25 95 -40 120 -18 29 -35 28 -90
-4 -56 -33 -87 -59 -182 -154 -139 -138 -188 -213 -195 -297 -2 -26 -6 -61 -9
-78 -3 -16 -8 -52 -10 -80 -3 -27 -8 -66 -11 -86 -3 -19 -7 -55 -10 -80 -2
-24 -4 -44 -5 -44 -1 0 -3 -11 -5 -25 -9 -83 -17 -149 -21 -175 -4 -27 -6 -52
-18 -190 -2 -22 -5 -40 -6 -40 -1 0 -3 -27 -5 -60 -2 -33 -7 -85 -10 -115 -3
-30 -7 -95 -10 -145 -2 -49 -5 -90 -6 -90 0 0 -3 -27 -4 -60 -2 -33 -6 -103
-9 -155 -25 -443 -26 -1124 -1 -1182 4 -11 3 -18 -5 -18 -6 0 -9 -4 -6 -8 5
-9 14 -74 20 -162 3 -30 7 -68 10 -85 2 -16 7 -52 10 -80 4 -27 9 -68 12 -90
4 -22 8 -53 9 -70 2 -16 6 -48 9 -70 15 -110 18 -154 21 -325 2 -102 -1 -210
-6 -240 -5 -30 -11 -71 -13 -90 -3 -19 -14 -73 -26 -120 -11 -47 -22 -92 -24
-100 -2 -8 -6 -22 -9 -30 -4 -8 -11 -33 -16 -55 -9 -38 -56 -211 -67 -246 -3
-13 -17 -17 -57 -17 -50 0 -194 -11 -226 -17 -9 -2 -45 -6 -81 -10 -36 -4 -74
-9 -85 -11 -11 -2 -33 -6 -50 -9 -223 -38 -463 -108 -680 -197 -66 -27 -130
-54 -142 -58 -23 -10 -30 3 -47 90 -3 14 -7 35 -10 48 -4 12 -8 32 -11 45 -3
12 -12 54 -21 94 -9 40 -13 77 -9 83 3 5 2 10 -3 10 -5 0 -14 35 -20 78 -7 42
-14 88 -17 102 -22 127 -34 223 -30 231 4 5 2 9 -3 9 -5 0 -8 12 -8 28 1 15
-1 34 -5 42 -4 8 -10 47 -13 85 -4 39 -9 86 -12 105 -2 19 -7 58 -10 85 -2 28
-7 66 -9 85 -2 19 -6 65 -9 102 -2 37 -7 76 -11 88 -4 12 -2 20 6 20 8 0 8 4
2 13 -6 6 -11 35 -12 62 -7 149 -11 209 -17 227 -4 15 -3 18 6 13 9 -6 11 -4
4 6 -5 8 -10 48 -11 89 -2 85 -11 312 -20 540 -3 85 -7 185 -7 222 -1 38 -3
68 -6 68 -3 0 -6 24 -7 53 -2 53 -9 143 -17 207 -3 19 -8 58 -11 85 -3 28 -8
61 -10 75 -2 14 -6 36 -8 50 -16 98 -20 119 -28 148 -7 21 -17 32 -29 32 -56
0 -299 -218 -385 -345 l-40 -59 2 -160 c2 -227 11 -445 18 -456 3 -6 1 -10 -5
-10 -6 0 -8 -5 -5 -10 6 -10 9 -50 17 -260 1 -36 7 -68 13 -72 6 -5 6 -8 -2
-8 -7 0 -10 -9 -7 -22 2 -13 7 -77 10 -143 8 -158 12 -220 14 -220 0 0 3 -36
5 -80 1 -44 6 -120 11 -170 4 -49 8 -111 8 -137 1 -27 3 -48 6 -48 4 0 4 -16
2 -35 -2 -19 -1 -43 3 -52 4 -10 9 -49 11 -88 2 -38 6 -81 9 -95 2 -14 7 -47
10 -75 6 -54 12 -96 19 -135 3 -14 7 -47 10 -75 4 -27 9 -61 11 -75 3 -14 7
-41 9 -60 3 -19 9 -66 15 -105 13 -85 20 -135 25 -177 3 -18 7 -53 11 -78 10
-77 15 -113 21 -170 6 -58 12 -95 14 -95 2 0 13 -127 13 -162 1 -18 4 -33 7
-33 3 0 6 -23 7 -52 2 -52 16 -73 43 -62 53 20 66 15 73 -31 3 -21 42 -145 57
-180 31 -77 50 -130 50 -141 0 -8 5 -14 10 -14 6 0 10 -7 10 -15 0 -21 99
-229 111 -233 5 -2 6 -8 3 -13 -3 -6 0 -17 7 -25 7 -8 22 -34 34 -57 75 -145
294 -486 317 -495 4 -2 8 -9 8 -14 0 -6 7 -18 15 -27 8 -9 36 -43 62 -76 26
-33 58 -71 70 -85 13 -14 23 -28 23 -31 0 -4 -42 -49 -92 -101 -120 -122 -175
-184 -266 -301 -51 -66 -192 -273 -192 -283 0 -2 -11 -22 -25 -44 -14 -21 -26
-45 -27 -52 -2 -7 -5 -15 -8 -18 -7 -7 -45 -82 -45 -89 -1 -3 -6 -15 -12 -26
-15 -27 -84 -196 -88 -215 -2 -8 -9 -28 -15 -45 -6 -16 -14 -39 -16 -50 -10
-42 -13 -50 -14 -50 -2 0 -6 -17 -14 -55 -3 -14 -11 -47 -18 -75 -6 -27 -12
-93 -11 -146 0 -85 4 -103 29 -155 15 -33 32 -60 36 -62 4 -2 8 -9 8 -16 0
-23 147 -172 217 -218 124 -84 280 -143 443 -169 173 -28 411 -17 585 27 33 8
96 27 140 41 44 14 85 26 90 28 6 1 19 5 30 10 11 4 61 23 110 43 131 51 376
173 501 251 l52 31 93 -25 c138 -37 261 -46 412 -31 82 8 285 54 293 67 3 5
12 9 20 9 20 0 208 90 212 101 2 5 8 9 13 9 12 0 218 128 237 147 8 7 23 18
35 25 20 10 126 86 137 98 3 3 36 30 75 60 109 86 103 80 244 209 116 106 292
282 351 351 32 37 46 48 48 36 2 -9 8 -16 13 -16 5 0 9 -8 9 -17 0 -10 9 -33
20 -50 11 -18 17 -33 13 -33 -3 0 0 -8 8 -17 8 -10 21 -29 28 -43 16 -35 105
-153 134 -179 149 -137 253 -178 427 -168 52 3 102 8 110 10 73 19 113 33 165
59 66 34 168 98 173 110 2 5 8 8 14 8 5 0 15 6 22 13 8 6 28 23 45 37 44 34
248 235 296 291 40 46 49 57 118 152 20 29 42 57 47 64 6 7 15 24 22 38 6 14
16 25 21 25 6 0 7 3 4 6 -4 4 2 19 13 34 11 15 24 38 30 51 5 13 14 31 19 39
15 24 41 87 41 99 0 6 4 11 9 11 5 0 11 14 15 32 9 47 16 29 21 -53 4 -70 8
-113 21 -204 4 -22 6 -48 6 -57 -1 -10 4 -20 9 -23 5 -4 7 -11 3 -16 -3 -6 3
-13 14 -16 24 -6 31 -27 21 -65 -4 -15 -3 -30 2 -34 5 -3 7 -10 3 -15 -11 -19
-11 -139 0 -139 7 0 8 -3 1 -8 -5 -4 -10 -16 -11 -27 -2 -44 -15 -222 -18
-250 -4 -32 -17 -134 -19 -150 -1 -5 12 -9 29 -9 64 3 244 158 355 305 56 74
64 95 73 181 2 24 5 43 6 43 1 0 3 24 13 161 3 28 7 56 11 62 3 6 2 13 -4 17
-6 4 -7 12 -3 18 4 6 8 97 9 202 3 246 12 532 18 570 3 17 7 48 10 70 6 42 15
96 21 130 9 48 37 131 48 140 7 6 13 16 15 23 4 19 102 176 113 180 5 2 9 7 9
12 0 9 61 112 71 120 3 3 14 21 24 40 10 19 21 37 24 40 3 3 15 21 25 40 10
19 32 54 48 78 15 24 28 45 28 48 0 3 18 32 40 65 22 33 40 65 40 70 0 5 5 9
10 9 6 0 10 5 10 10 0 6 18 36 41 66 68 93 153 141 230 131 76 -10 126 -69
174 -204 28 -80 32 -101 50 -225 16 -120 24 -738 11 -893 -13 -160 -18 -222
-20 -257 0 -21 -3 -38 -6 -38 -3 0 -5 -17 -6 -38 0 -20 -3 -66 -7 -102 -14
-135 -17 -156 -22 -200 -3 -25 -7 -65 -10 -90 -5 -49 -14 -131 -20 -170 -2
-14 -6 -45 -9 -70 -15 -128 -18 -156 -21 -170 -1 -8 -5 -45 -10 -82 l-7 -66
-82 -30 c-192 -71 -338 -108 -750 -188 -12 -2 -75 -13 -141 -25 -143 -24 -150
-26 -195 -34 -113 -21 -189 -35 -215 -39 -16 -3 -41 -7 -55 -11 -14 -3 -38 -8
-55 -10 -225 -40 -504 -122 -705 -208 -14 -6 -27 -11 -30 -12 -5 -2 -27 -12
-200 -90 -52 -24 -180 -85 -285 -135 -104 -50 -215 -102 -245 -115 -93 -39
-350 -120 -695 -219 -398 -114 -488 -142 -810 -252 -532 -181 -776 -263 -920
-309 -82 -25 -168 -53 -190 -62 -22 -8 -47 -16 -55 -18 -20 -4 -83 -31 -147
-62 -154 -74 -404 -347 -419 -455 -6 -43 13 -144 37 -203 7 -16 13 -34 14 -40
10 -42 82 -167 158 -273 50 -70 94 -129 97 -132 4 -3 33 -36 65 -75 76 -94
197 -225 330 -359 175 -175 286 -272 475 -414 52 -40 100 -75 105 -79 6 -5 51
-37 100 -73 50 -35 92 -68 93 -72 2 -4 10 -8 17 -8 7 0 15 -3 17 -8 2 -4 37
-33 78 -64 41 -32 80 -62 87 -68 7 -6 63 -48 125 -95 62 -46 118 -88 123 -92
6 -5 46 -35 90 -67 95 -70 236 -186 339 -277 23 -20 56 -49 75 -65 18 -16 46
-40 61 -54 15 -14 58 -52 95 -85 37 -33 77 -69 89 -80 12 -11 55 -49 96 -85
132 -114 240 -214 374 -345 69 -67 93 -83 121 -78 14 3 25 9 25 13 0 5 10 12
22 16 12 3 27 12 34 18 6 6 34 30 62 54 96 81 251 260 252 290 0 6 4 12 10 12
21 0 -7 39 -80 110 -155 151 -276 263 -386 357 -29 25 -144 126 -158 138 -35
33 -141 128 -200 180 -38 33 -86 77 -108 98 -22 20 -43 37 -46 37 -4 0 -26 18
-50 40 -24 22 -45 40 -47 40 -4 0 -29 19 -59 45 -10 9 -56 44 -186 139 -30 23
-57 43 -60 46 -3 3 -50 39 -105 80 -55 41 -102 77 -105 80 -4 5 -140 106 -360
267 -324 238 -484 385 -818 748 -10 11 -43 49 -73 85 -30 36 -56 67 -59 70
-21 20 -110 140 -110 148 0 6 -4 12 -8 14 -25 9 -154 231 -141 241 2 2 109 38
238 81 128 43 245 82 260 88 14 6 34 13 44 15 10 1 31 10 47 18 17 9 32 15 35
15 3 1 10 3 17 5 7 2 135 45 283 94 263 88 363 118 860 261 407 117 542 166
790 285 262 126 370 177 460 217 50 22 104 46 120 53 17 7 84 32 150 55 101
35 147 49 240 74 6 2 28 6 50 11 50 10 64 12 150 31 39 8 81 17 95 20 35 7
440 80 520 93 36 6 76 13 90 16 14 3 75 14 135 26 189 35 382 83 530 130 33
10 62 19 65 19 3 -1 50 17 104 40 176 71 325 160 456 273 88 75 215 200 250
247 14 18 30 38 36 44 22 22 72 122 84 166 13 49 16 66 25 155 4 33 10 62 13
65 4 3 8 23 9 45 1 38 9 114 18 180 2 17 7 62 11 100 6 67 11 100 14 100 1 0
3 20 5 45 5 54 13 129 19 179 9 64 15 125 22 196 3 39 7 88 9 110 8 90 18 244
19 300 1 33 4 65 8 71 4 6 4 14 1 18 -9 8 -11 86 -3 86 3 0 5 14 5 30 0 17 -4
30 -8 30 -5 0 -5 5 -2 10 9 15 11 98 2 106 -3 4 -2 14 3 23 5 10 5 23 0 31 -5
9 -5 19 2 27 6 7 7 13 2 13 -5 0 -9 16 -9 35 0 19 4 35 8 35 5 0 5 6 0 13 -4
6 -8 44 -9 82 -5 163 -19 305 -39 378 -3 12 -10 40 -16 62 -18 65 -81 185
-112 211 -37 31 -99 47 -158 41 -122 -13 -400 -203 -628 -427 -50 -50 -184
-201 -224 -252 -9 -13 -28 -36 -41 -53 -48 -62 -155 -221 -172 -257 -10 -21
-21 -38 -24 -38 -4 0 -15 -18 -26 -40 -10 -22 -22 -40 -25 -40 -4 0 -12 -13
-19 -30 -17 -41 -27 -30 -26 30 1 27 -1 50 -4 50 -3 0 -6 21 -7 48 -1 47 -6
118 -19 262 -4 41 -8 101 -8 133 -1 31 -3 57 -6 57 -3 0 -7 71 -7 158 -1 86
-2 161 -2 165 -1 5 -9 6 -20 2 -16 -5 -18 1 -20 67 -1 40 -4 99 -6 130 -5 62
-10 57 70 72 65 13 232 75 302 112 266 141 536 403 729 709 54 84 143 264 164
328 6 20 15 37 19 37 4 0 8 10 8 23 1 12 9 47 18 77 8 30 16 74 18 98 1 23 4
42 8 42 6 0 2 65 -6 87 -2 7 0 15 6 18 5 4 7 10 4 15 -3 5 -8 28 -11 52 -4 37
-13 87 -29 173 -18 98 -60 188 -117 250 -76 84 -244 144 -393 140 -81 -2 -164
-20 -177 -40 -4 -5 -8 -6 -8 -2 0 23 -294 -162 -376 -238 -6 -5 -33 -28 -60
-50 -61 -51 -227 -218 -278 -279 -22 -26 -54 -64 -73 -84 -18 -21 -33 -41 -33
-45 0 -4 -9 -18 -21 -30 -23 -25 -126 -178 -135 -202 -4 -8 -10 -15 -14 -15
-7 0 -54 142 -65 199 -2 9 -4 17 -5 19 -7 8 -32 131 -45 227 -10 70 -22 223
-40 520 -3 44 -6 95 -8 113 -2 18 2 32 7 32 7 0 8 3 1 8 -6 4 -11 30 -12 57
-1 28 -4 102 -7 165 -4 63 -9 160 -12 215 -3 55 -7 143 -9 195 -2 52 -4 95 -5
95 -1 0 -3 29 -5 65 -1 36 -6 124 -9 195 -15 284 -17 334 -20 447 -2 64 -7
122 -11 127 -3 6 -1 11 5 11 6 0 8 5 3 13 -4 6 -8 39 -9 72 -7 224 -36 534
-69 730 -1 11 -6 36 -9 55 -9 53 -16 92 -22 129 -3 18 -8 43 -10 55 -3 11 -7
32 -10 44 -35 171 -95 313 -155 367 -22 19 -40 35 -42 35 -57 9 -77 8 -112 -9z
m-222 -558 c14 -27 30 -66 37 -88 7 -22 15 -44 18 -50 3 -5 7 -16 8 -25 2 -8
8 -35 14 -60 6 -25 13 -54 16 -65 2 -11 6 -31 9 -45 13 -60 16 -77 20 -115 3
-22 7 -51 11 -65 3 -14 7 -41 9 -60 3 -19 7 -48 9 -65 3 -16 8 -50 11 -75 4
-25 8 -56 11 -70 2 -14 7 -61 10 -105 2 -44 6 -98 9 -120 4 -51 16 -258 19
-353 2 -40 6 -75 9 -78 3 -3 1 -18 -3 -34 -4 -16 -6 -31 -3 -34 3 -2 7 -51 9
-108 8 -204 12 -256 18 -266 3 -6 2 -13 -4 -17 -6 -4 -8 -10 -5 -15 6 -9 13
-115 20 -290 2 -47 4 -85 5 -85 0 0 3 -43 5 -95 3 -52 7 -142 10 -200 14 -270
16 -318 17 -368 1 -29 5 -55 9 -58 5 -3 4 -15 -1 -28 -5 -13 -6 -26 -4 -29 3
-3 7 -45 9 -94 2 -48 7 -115 10 -148 3 -33 8 -94 11 -135 3 -41 7 -88 9 -105
11 -88 15 -113 21 -145 3 -19 8 -46 11 -60 2 -14 11 -52 20 -85 8 -33 17 -67
18 -75 2 -8 4 -15 5 -15 1 0 3 -7 5 -15 7 -31 84 -257 103 -300 22 -51 21 -53
-30 -133 -21 -31 -38 -60 -38 -63 0 -2 -9 -14 -20 -26 -10 -12 -17 -25 -14
-30 3 -4 1 -8 -4 -8 -5 0 -23 -21 -40 -47 -30 -47 -45 -67 -89 -123 -13 -15
-23 -31 -23 -34 0 -3 -8 -14 -17 -24 -20 -20 -72 -81 -111 -129 -28 -36 -42
-42 -42 -16 0 54 -120 208 -213 272 -97 66 -217 89 -304 56 -145 -54 -381
-266 -536 -481 -20 -29 -37 -57 -37 -63 0 -6 -4 -11 -10 -11 -5 0 -10 -6 -10
-14 0 -8 -6 -21 -13 -28 -12 -12 -88 -180 -91 -202 -1 -6 -5 -17 -10 -24 -4
-7 -5 -16 -2 -19 3 -3 2 -11 -3 -17 -6 -7 -12 -24 -15 -39 -2 -15 -7 -30 -9
-34 -3 -5 -8 -24 -11 -43 -3 -19 -8 -46 -11 -60 -15 -78 -27 -243 -29 -390 -1
-86 -3 -95 -22 -105 -12 -6 -28 -16 -35 -22 -8 -6 -32 -21 -54 -33 -22 -13
-59 -33 -82 -46 -23 -13 -46 -24 -52 -24 -5 0 -21 26 -36 57 -99 216 -333 349
-690 391 -130 15 -367 6 -480 -18 -22 -5 -55 -12 -74 -15 -97 -17 -255 -100
-366 -192 -135 -113 -307 -307 -374 -423 -45 -77 -88 -159 -98 -185 -6 -16
-15 -39 -19 -50 -4 -11 -6 -23 -6 -27 1 -5 -3 -8 -10 -8 -6 0 -8 -3 -5 -6 3
-4 1 -16 -5 -28 -7 -11 -13 -23 -13 -26 -5 -17 -17 -60 -19 -60 -10 0 -115 45
-152 66 -53 29 -128 86 -156 117 -17 18 -16 21 38 70 57 53 191 189 259 262
78 86 92 102 130 150 22 27 45 55 50 61 6 6 18 22 27 35 67 92 100 134 109
140 6 3 9 8 7 10 -1 2 13 29 32 59 39 62 42 67 97 170 35 64 56 110 98 215 43
108 58 261 35 361 -35 151 -153 322 -245 355 -19 7 -35 16 -35 19 0 3 18 24
41 45 61 60 146 167 154 195 4 14 11 30 15 35 5 6 11 24 13 40 6 31 41 168 77
295 11 41 23 86 26 99 3 14 7 29 10 33 3 5 8 24 11 41 3 18 8 34 11 37 4 3 8
14 8 25 1 11 7 45 13 75 6 30 13 66 16 80 9 44 18 124 19 158 0 17 5 32 11 32
6 0 7 3 0 8 -12 8 -14 92 -2 92 4 0 4 8 -2 17 -5 10 -5 26 0 40 4 12 4 25 0
28 -5 2 -9 22 -9 42 0 36 -2 62 -18 193 -4 30 -8 69 -10 85 -1 17 -3 30 -4 30
-1 0 -3 16 -5 36 -2 20 -8 69 -14 110 -15 102 -21 164 -38 364 -14 165 -6 963
12 1200 2 28 6 92 9 144 3 52 7 95 8 97 4 3 174 -409 189 -456 6 -19 14 -44
19 -55 7 -17 28 -81 120 -365 13 -41 39 -133 46 -165 4 -16 9 -34 13 -40 3 -5
7 -21 9 -35 2 -14 7 -27 13 -28 5 -2 7 -7 4 -12 -3 -4 2 -27 11 -51 9 -24 17
-53 19 -64 2 -11 13 -51 25 -90 12 -38 24 -81 27 -95 3 -14 9 -29 13 -35 4 -5
11 -23 15 -40 12 -43 12 -46 30 -94 9 -25 26 -65 37 -90 49 -108 61 -136 62
-144 1 -4 7 -11 14 -16 8 -5 13 -11 13 -15 -1 -6 43 -94 64 -128 28 -46 194
-381 214 -433 13 -33 31 -78 41 -100 18 -42 31 -73 36 -90 2 -5 29 -84 60
-175 31 -91 57 -172 59 -180 2 -8 13 -49 25 -90 11 -41 23 -82 25 -90 5 -23
65 -239 81 -295 8 -27 16 -54 18 -60 6 -22 26 -71 35 -85 13 -22 60 -14 109
20 23 17 45 30 48 30 16 0 220 204 251 251 14 22 30 39 35 39 5 0 7 4 4 9 -4
5 -3 11 2 13 14 6 107 170 117 208 2 7 15 37 33 80 8 19 16 40 18 45 1 6 14
44 28 85 15 41 26 75 25 75 -1 0 5 25 13 55 22 77 56 227 64 275 3 22 9 45 12
50 4 6 7 15 7 20 2 34 19 102 29 114 9 12 8 13 -2 7 -11 -7 -12 -4 -4 10 6 11
14 42 18 69 4 28 8 52 9 55 1 3 4 19 8 35 8 36 16 80 23 120 3 17 8 37 11 45
3 8 7 26 8 40 1 14 5 39 9 55 3 17 9 46 13 65 3 19 7 40 8 45 3 9 6 28 20 110
3 17 8 46 12 65 3 19 5 41 4 48 -1 6 2 12 6 12 4 0 9 12 9 28 2 34 15 125 20
133 2 4 6 24 9 45 3 22 8 50 11 64 2 14 7 39 9 55 3 17 12 66 20 110 8 44 19
105 24 135 6 30 12 64 14 75 3 11 8 40 13 65 4 25 8 47 9 50 3 11 18 96 21
115 3 23 5 30 34 145 11 47 23 92 25 100 4 19 55 211 59 225 1 6 6 27 11 48 4
20 11 37 17 37 5 0 6 5 3 10 -4 6 -3 19 1 28 4 9 9 26 11 37 2 11 7 31 12 45
5 14 14 45 21 70 7 25 15 52 18 60 3 8 6 20 8 27 3 15 24 83 31 103 7 18 12
34 16 55 2 8 6 18 10 21 4 4 7 18 7 30 0 13 4 25 9 28 4 3 11 18 14 33 3 16
11 42 18 58 7 17 13 35 14 40 2 6 15 42 30 80 15 39 28 75 29 80 2 6 8 23 14
38 7 16 12 30 12 33 0 14 115 234 122 234 4 0 18 -21 31 -47z m1802 -3098
c139 -37 243 -116 292 -223 14 -31 26 -61 27 -66 2 -6 8 -29 14 -51 6 -22 13
-53 16 -70 2 -16 5 -30 6 -30 10 0 14 -253 5 -295 -3 -14 -8 -38 -11 -55 -12
-73 -80 -231 -150 -352 -25 -44 -128 -84 -309 -121 -238 -50 -408 -8 -504 122
-21 28 -41 58 -45 66 -4 8 -18 33 -31 55 -13 22 -44 82 -70 132 l-46 93 23 42
c13 24 28 46 33 50 6 4 6 8 2 8 -5 0 0 12 10 28 10 15 28 45 38 67 11 22 24
43 28 46 5 3 10 12 11 20 5 25 39 89 48 89 5 0 7 4 3 9 -3 5 0 15 7 23 7 7 14
20 16 28 2 8 9 22 16 30 7 8 16 22 19 31 12 35 119 200 148 229 92 92 262 132
404 95z m-1094 -1527 c28 -54 110 -133 162 -157 50 -23 131 -43 187 -46 19 -1
37 -3 39 -4 3 0 -9 -11 -25 -23 -36 -27 -110 -104 -162 -168 -21 -25 -43 -51
-49 -58 -26 -27 -93 -181 -113 -258 -23 -92 -26 -104 -36 -171 -3 -26 -8 -57
-10 -68 -7 -36 -27 -243 -39 -400 -2 -27 -6 -72 -9 -100 -3 -27 -8 -77 -11
-110 -3 -33 -8 -78 -10 -100 -3 -22 -7 -67 -10 -100 -4 -33 -8 -71 -9 -85 -2
-14 -7 -52 -10 -86 -4 -33 -9 -73 -12 -90 -3 -16 -7 -42 -9 -59 -2 -16 -6 -41
-9 -55 -3 -14 -10 -52 -15 -85 -6 -33 -13 -71 -16 -85 -3 -14 -7 -36 -10 -50
-10 -54 -14 -68 -40 -165 -49 -179 -98 -303 -181 -458 -33 -61 -226 -100 -351
-71 -64 15 -143 46 -143 57 0 4 -5 7 -11 7 -16 0 -99 68 -140 115 -69 77 -135
191 -192 328 l-37 89 28 36 c15 20 30 39 35 40 4 2 7 10 7 18 0 8 7 17 15 20
8 4 15 12 15 19 0 6 11 24 24 38 13 14 21 28 18 31 -3 3 -1 6 5 6 6 0 13 8 17
18 3 9 23 42 44 73 84 127 98 147 144 224 26 44 51 85 56 90 4 6 9 13 10 18 1
4 23 51 48 105 25 53 49 106 54 117 39 96 51 130 71 195 28 93 27 88 44 165 2
11 6 31 10 45 16 74 18 87 29 195 16 150 21 368 12 504 -2 47 0 58 23 82 14
15 35 38 45 51 21 25 148 170 156 178 3 3 25 30 50 60 25 30 53 62 62 71 10 9
18 20 18 25 0 5 13 23 28 39 15 17 47 56 71 87 l43 58 35 -58 c19 -31 43 -74
54 -94z m-1347 -378 c24 -11 64 -35 90 -55 48 -36 126 -115 126 -127 0 -3 6
-13 13 -20 14 -15 69 -118 63 -118 -3 0 -1 -13 4 -29 7 -27 3 -34 -49 -88
-103 -104 -243 -224 -366 -314 -8 -6 -10 46 -9 164 1 95 3 172 4 172 0 0 3 29
5 65 4 73 12 152 15 160 1 3 3 10 4 15 10 59 20 103 31 129 13 31 15 38 15 56
0 14 5 13 54 -10z m-3215 -135 c25 -4 64 -15 86 -25 132 -60 263 -299 250
-456 -5 -69 -16 -125 -29 -156 -4 -9 -9 -22 -10 -30 -7 -33 -62 -149 -108
-229 -97 -164 -163 -243 -344 -407 l-69 -63 -25 28 c-44 50 -94 111 -120 144
-14 18 -31 38 -37 45 -7 7 -13 17 -13 22 0 5 -7 15 -14 22 -19 15 -186 266
-186 279 0 5 -4 11 -8 13 -14 5 -77 117 -159 278 -130 258 -189 401 -170 411
14 8 151 46 188 52 13 3 42 10 64 15 22 6 90 18 150 27 61 9 121 18 135 21 14
2 66 7 115 10 50 4 91 7 92 8 5 4 171 -3 212 -9z m3535 -615 c-1 -80 -4 -171
-8 -202 -4 -32 -9 -77 -11 -100 -4 -41 -8 -62 -20 -118 -3 -14 -8 -36 -11 -50
-3 -14 -7 -36 -10 -50 -7 -36 -55 -203 -62 -215 -4 -5 -7 -14 -8 -20 -12 -68
-172 -375 -185 -354 -4 7 -5 17 -3 21 3 4 1 8 -4 8 -6 0 -12 15 -15 33 -3 17
-10 52 -17 77 -6 25 -14 55 -16 68 -2 12 -7 34 -10 50 -10 48 -32 208 -33 242
0 8 -2 33 -5 55 -2 22 -7 81 -11 130 -16 224 -15 255 6 255 5 0 17 8 27 18 10
9 36 32 58 50 76 65 156 138 242 219 103 97 98 104 96 -117z m-2249 -450 c76
-12 218 -45 250 -59 102 -43 204 -103 250 -145 30 -28 55 -56 55 -61 0 -11
-201 -102 -355 -162 -49 -19 -97 -38 -105 -42 -8 -5 -68 -25 -133 -45 -256
-81 -424 -115 -592 -120 -81 -3 -105 1 -100 17 2 7 6 32 10 57 14 105 18 125
27 131 7 4 6 9 -1 13 -8 5 -8 13 -1 26 5 10 10 28 10 39 0 12 5 21 11 21 5 0
8 3 5 8 -6 10 14 85 51 192 32 92 44 103 118 113 22 3 72 11 110 16 130 19
263 20 390 1z m1361 -132 c5 -89 14 -240 19 -303 15 -190 20 -242 35 -325 6
-30 12 -68 15 -85 3 -16 7 -41 10 -55 4 -14 8 -36 11 -50 2 -14 7 -36 11 -50
3 -14 6 -28 5 -32 -1 -5 3 -8 9 -8 5 0 8 -4 4 -10 -3 -5 1 -25 9 -45 8 -19 12
-35 9 -35 -3 0 -1 -6 4 -12 6 -7 16 -36 23 -64 13 -50 12 -51 -16 -81 -16 -16
-49 -54 -73 -83 -105 -124 -291 -298 -441 -413 -103 -79 -306 -193 -406 -227
-156 -55 -357 -76 -525 -57 -114 13 -116 6 49 169 145 144 296 303 363 383 19
22 42 49 51 60 40 47 84 103 103 130 11 15 31 42 45 59 14 17 52 72 84 121 33
50 70 106 83 126 12 19 23 40 23 47 0 6 7 15 16 20 9 5 15 11 14 13 -2 7 13
44 25 59 27 34 131 290 138 341 2 8 5 19 8 24 4 6 10 28 14 50 5 22 10 47 11
55 2 8 5 27 6 43 1 15 5 27 8 27 3 0 5 17 4 37 -1 69 -4 65 121 145 10 7 42
29 70 49 27 20 52 35 54 33 2 -2 5 -27 7 -56z m-691 -435 c-5 -111 -16 -192
-34 -268 -6 -22 -8 -41 -6 -44 3 -2 1 -9 -4 -15 -4 -6 -18 -45 -30 -86 -25
-84 -87 -218 -138 -298 -18 -29 -33 -55 -33 -58 0 -3 -8 -16 -17 -29 -10 -12
-25 -33 -33 -45 -26 -40 -120 -161 -153 -198 -61 -68 -300 -303 -336 -330 -20
-15 -42 -33 -49 -39 -21 -20 -32 -16 -114 36 -95 61 -288 249 -288 281 0 6 -3
10 -8 10 -7 0 -13 10 -42 66 -8 16 -17 31 -21 34 -6 5 -51 117 -63 157 -18 60
-37 172 -31 182 3 5 2 12 -3 15 -5 3 -8 37 -8 77 l1 72 43 12 c23 7 42 11 42
9 0 -2 11 1 26 6 14 6 38 12 53 15 43 7 327 103 421 142 133 55 605 274 730
338 98 50 99 50 95 -42z m-2502 -289 c58 -55 204 -142 276 -165 75 -23 146
-36 241 -45 36 -3 79 -7 95 -9 17 -2 33 -4 37 -4 4 -1 3 -13 -1 -28 -9 -30 -6
-457 3 -511 3 -18 8 -50 11 -70 3 -21 8 -49 11 -62 3 -14 7 -36 10 -50 21
-103 107 -269 189 -365 50 -58 137 -145 146 -145 26 0 2 -18 -43 -33 -29 -9
-81 -26 -115 -37 -84 -27 -215 -57 -288 -65 -33 -4 -69 -9 -80 -11 -29 -6
-235 -6 -265 0 -14 3 -43 7 -65 11 -103 15 -254 67 -351 121 -73 40 -167 118
-221 182 -27 31 -51 59 -55 60 -5 2 -8 8 -8 14 0 5 -9 23 -21 39 -11 16 -22
37 -24 48 -2 11 -9 29 -15 40 -6 12 -8 21 -5 21 3 0 1 9 -5 20 -8 15 -8 20 2
21 9 0 9 2 1 5 -7 3 -9 15 -4 32 4 15 6 37 5 50 -1 12 1 22 5 22 3 0 6 10 7
23 2 40 22 127 41 177 4 8 6 18 5 22 -1 4 7 28 18 53 11 25 17 45 14 45 -2 0
4 17 15 38 10 20 19 40 20 44 11 60 150 316 216 398 45 55 139 150 149 150 6
0 28 -16 49 -36z"/>
<path d="M9213 943 c-90 -61 -226 -197 -283 -283 -8 -12 -20 -28 -26 -34 -14
-15 -29 -57 -25 -71 2 -5 5 -18 6 -28 6 -26 44 -136 61 -174 8 -17 14 -34 14
-37 0 -13 44 -101 54 -108 6 -4 7 -8 2 -8 -5 0 -3 -6 3 -14 13 -15 63 -12 69
5 2 5 8 9 14 9 17 0 121 85 190 156 117 122 180 211 174 246 -3 13 -5 24 -7
26 -1 1 -2 6 -3 11 0 6 -7 16 -13 23 -7 6 -13 16 -13 20 0 5 -9 27 -20 51 -33
71 -90 239 -84 248 3 5 -6 9 -20 9 -14 0 -55 -21 -93 -47z"/>
</g>
</svg>
